<svg width="1440" height="908" viewBox="0 0 1440 908" fill="none" xmlns="http://www.w3.org/2000/svg">
<g clip-path="url(#clip0_335_53251)" filter="url(#filter0_d_335_53251)">
<rect width="1440" height="900" transform="translate(3)" fill="#2FB3E3"/>
<rect x="3" y="-1" width="1440" height="901" fill="url(#paint0_linear_335_53251)"/>
<rect x="1584.94" y="934.114" width="100" height="484" rx="50" transform="rotate(124.744 1584.94 934.114)" fill="#06212B"/>
<rect x="1589.26" y="1057.72" width="100" height="484" rx="50" transform="rotate(124.744 1589.26 1057.72)" fill="#13485B"/>
<rect x="1704.57" y="903.737" width="100" height="484" rx="50" transform="rotate(124.744 1704.57 903.737)" fill="#0A3747"/>
<rect x="-136" y="-34.6367" width="100" height="484" rx="50" transform="rotate(-45.821 -136 -34.6367)" fill="#06212B"/>
<rect x="-120" y="-157.283" width="100" height="484" rx="50" transform="rotate(-45.821 -120 -157.283)" fill="#1C6B88"/>
<rect x="-259" y="-24.2832" width="100" height="484" rx="50" transform="rotate(-45.821 -259 -24.2832)" fill="#2FB3E3"/>
<g filter="url(#filter1_bf_335_53251)">
<circle cx="570.5" cy="331.5" r="16.5" fill="url(#paint1_linear_335_53251)"/>
<circle cx="570.5" cy="331.5" r="16" stroke="url(#paint2_linear_335_53251)"/>
</g>
<g filter="url(#filter2_f_335_53251)">
<path d="M574.466 342.941C575.497 343.101 576.564 342.928 577.58 342.437C578.597 341.946 579.533 341.15 580.313 340.115C581.093 339.08 581.693 337.835 582.066 336.483C582.438 335.131 582.572 333.709 582.456 332.336L581.878 332.492C581.984 333.746 581.862 335.043 581.522 336.277C581.182 337.512 580.634 338.648 579.922 339.592C579.21 340.537 578.356 341.263 577.428 341.711C576.5 342.16 575.526 342.317 574.585 342.172L574.466 342.941Z" fill="url(#paint3_linear_335_53251)"/>
</g>
<g filter="url(#filter3_f_335_53251)">
<path d="M567.397 321.529C566.436 321.123 565.359 321.03 564.253 321.259C563.148 321.488 562.046 322.031 561.037 322.845C560.029 323.659 559.143 324.72 558.452 325.94C557.762 327.161 557.286 328.507 557.064 329.868L557.662 329.858C557.865 328.615 558.299 327.387 558.93 326.273C559.56 325.158 560.369 324.19 561.289 323.447C562.209 322.705 563.215 322.209 564.224 322C565.233 321.791 566.217 321.875 567.094 322.246L567.397 321.529Z" fill="url(#paint4_linear_335_53251)"/>
</g>
<g filter="url(#filter4_bf_335_53251)">
<circle cx="884.5" cy="169.5" r="16.5" fill="url(#paint5_linear_335_53251)"/>
<circle cx="884.5" cy="169.5" r="16" stroke="url(#paint6_linear_335_53251)"/>
</g>
<g filter="url(#filter5_f_335_53251)">
<path d="M888.466 180.941C889.497 181.101 890.564 180.928 891.58 180.437C892.597 179.946 893.533 179.15 894.313 178.115C895.093 177.08 895.693 175.835 896.066 174.483C896.438 173.131 896.572 171.709 896.456 170.336L895.878 170.492C895.984 171.746 895.862 173.043 895.522 174.277C895.182 175.512 894.634 176.648 893.922 177.592C893.21 178.537 892.356 179.263 891.428 179.711C890.5 180.16 889.526 180.317 888.585 180.172L888.466 180.941Z" fill="url(#paint7_linear_335_53251)"/>
</g>
<g filter="url(#filter6_f_335_53251)">
<path d="M881.397 159.529C880.436 159.123 879.359 159.03 878.253 159.259C877.148 159.488 876.046 160.031 875.037 160.845C874.029 161.659 873.143 162.72 872.452 163.94C871.762 165.161 871.286 166.507 871.064 167.868L871.662 167.858C871.865 166.615 872.299 165.387 872.93 164.273C873.56 163.158 874.369 162.19 875.289 161.447C876.209 160.705 877.215 160.209 878.224 160C879.233 159.791 880.217 159.875 881.094 160.246L881.397 159.529Z" fill="url(#paint8_linear_335_53251)"/>
</g>
<g filter="url(#filter7_bf_335_53251)">
<circle cx="215.5" cy="172.5" r="26.5" fill="url(#paint9_linear_335_53251)"/>
</g>
<g filter="url(#filter8_f_335_53251)">
<path d="M221.869 190.875C223.525 191.131 225.239 190.854 226.872 190.065C228.504 189.276 230.008 187.998 231.26 186.336C232.512 184.674 233.477 182.675 234.075 180.503C234.674 178.331 234.888 176.048 234.702 173.842L233.774 174.092C233.944 176.106 233.748 178.19 233.202 180.172C232.656 182.155 231.775 183.979 230.632 185.496C229.489 187.013 228.117 188.18 226.627 188.9C225.137 189.62 223.572 189.873 222.061 189.639L221.869 190.875Z" fill="url(#paint10_linear_335_53251)"/>
</g>
<g filter="url(#filter9_f_335_53251)">
<path d="M210.516 156.485C208.973 155.833 207.243 155.685 205.467 156.052C203.692 156.419 201.922 157.292 200.302 158.599C198.683 159.906 197.26 161.61 196.151 163.571C195.041 165.531 194.277 167.693 193.92 169.878L194.882 169.862C195.207 167.867 195.905 165.894 196.917 164.104C197.93 162.314 199.229 160.759 200.707 159.567C202.185 158.374 203.8 157.577 205.421 157.242C207.041 156.906 208.621 157.042 210.029 157.637L210.516 156.485Z" fill="url(#paint11_linear_335_53251)"/>
</g>
</g>
<defs>
<filter id="filter0_d_335_53251" x="-1" y="0" width="1448" height="908" filterUnits="userSpaceOnUse" color-interpolation-filters="sRGB">
<feFlood flood-opacity="0" result="BackgroundImageFix"/>
<feColorMatrix in="SourceAlpha" type="matrix" values="0 0 0 0 0 0 0 0 0 0 0 0 0 0 0 0 0 0 127 0" result="hardAlpha"/>
<feOffset dy="4"/>
<feGaussianBlur stdDeviation="2"/>
<feComposite in2="hardAlpha" operator="out"/>
<feColorMatrix type="matrix" values="0 0 0 0 0 0 0 0 0 0 0 0 0 0 0 0 0 0 0.25 0"/>
<feBlend mode="normal" in2="BackgroundImageFix" result="effect1_dropShadow_335_53251"/>
<feBlend mode="normal" in="SourceGraphic" in2="effect1_dropShadow_335_53251" result="shape"/>
</filter>
<filter id="filter1_bf_335_53251" x="514" y="275" width="113" height="113" filterUnits="userSpaceOnUse" color-interpolation-filters="sRGB">
<feFlood flood-opacity="0" result="BackgroundImageFix"/>
<feGaussianBlur in="BackgroundImageFix" stdDeviation="20"/>
<feComposite in2="SourceAlpha" operator="in" result="effect1_backgroundBlur_335_53251"/>
<feBlend mode="normal" in="SourceGraphic" in2="effect1_backgroundBlur_335_53251" result="shape"/>
<feGaussianBlur stdDeviation="1.5" result="effect2_foregroundBlur_335_53251"/>
</filter>
<filter id="filter2_f_335_53251" x="570.466" y="328.336" width="16.0307" height="18.6631" filterUnits="userSpaceOnUse" color-interpolation-filters="sRGB">
<feFlood flood-opacity="0" result="BackgroundImageFix"/>
<feBlend mode="normal" in="SourceGraphic" in2="BackgroundImageFix" result="shape"/>
<feGaussianBlur stdDeviation="2" result="effect1_foregroundBlur_335_53251"/>
</filter>
<filter id="filter3_f_335_53251" x="551.064" y="315.137" width="22.3333" height="20.7314" filterUnits="userSpaceOnUse" color-interpolation-filters="sRGB">
<feFlood flood-opacity="0" result="BackgroundImageFix"/>
<feBlend mode="normal" in="SourceGraphic" in2="BackgroundImageFix" result="shape"/>
<feGaussianBlur stdDeviation="3" result="effect1_foregroundBlur_335_53251"/>
</filter>
<filter id="filter4_bf_335_53251" x="828" y="113" width="113" height="113" filterUnits="userSpaceOnUse" color-interpolation-filters="sRGB">
<feFlood flood-opacity="0" result="BackgroundImageFix"/>
<feGaussianBlur in="BackgroundImageFix" stdDeviation="20"/>
<feComposite in2="SourceAlpha" operator="in" result="effect1_backgroundBlur_335_53251"/>
<feBlend mode="normal" in="SourceGraphic" in2="effect1_backgroundBlur_335_53251" result="shape"/>
<feGaussianBlur stdDeviation="1.5" result="effect2_foregroundBlur_335_53251"/>
</filter>
<filter id="filter5_f_335_53251" x="884.466" y="166.336" width="16.0308" height="18.6631" filterUnits="userSpaceOnUse" color-interpolation-filters="sRGB">
<feFlood flood-opacity="0" result="BackgroundImageFix"/>
<feBlend mode="normal" in="SourceGraphic" in2="BackgroundImageFix" result="shape"/>
<feGaussianBlur stdDeviation="2" result="effect1_foregroundBlur_335_53251"/>
</filter>
<filter id="filter6_f_335_53251" x="865.064" y="153.137" width="22.3333" height="20.7314" filterUnits="userSpaceOnUse" color-interpolation-filters="sRGB">
<feFlood flood-opacity="0" result="BackgroundImageFix"/>
<feBlend mode="normal" in="SourceGraphic" in2="BackgroundImageFix" result="shape"/>
<feGaussianBlur stdDeviation="3" result="effect1_foregroundBlur_335_53251"/>
</filter>
<filter id="filter7_bf_335_53251" x="149" y="106" width="133" height="133" filterUnits="userSpaceOnUse" color-interpolation-filters="sRGB">
<feFlood flood-opacity="0" result="BackgroundImageFix"/>
<feGaussianBlur in="BackgroundImageFix" stdDeviation="20"/>
<feComposite in2="SourceAlpha" operator="in" result="effect1_backgroundBlur_335_53251"/>
<feBlend mode="normal" in="SourceGraphic" in2="effect1_backgroundBlur_335_53251" result="shape"/>
<feGaussianBlur stdDeviation="1.5" result="effect2_foregroundBlur_335_53251"/>
</filter>
<filter id="filter8_f_335_53251" x="217.869" y="169.842" width="20.8978" height="25.126" filterUnits="userSpaceOnUse" color-interpolation-filters="sRGB">
<feFlood flood-opacity="0" result="BackgroundImageFix"/>
<feBlend mode="normal" in="SourceGraphic" in2="BackgroundImageFix" result="shape"/>
<feGaussianBlur stdDeviation="2" result="effect1_foregroundBlur_335_53251"/>
</filter>
<filter id="filter9_f_335_53251" x="187.92" y="149.855" width="28.5958" height="26.0234" filterUnits="userSpaceOnUse" color-interpolation-filters="sRGB">
<feFlood flood-opacity="0" result="BackgroundImageFix"/>
<feBlend mode="normal" in="SourceGraphic" in2="BackgroundImageFix" result="shape"/>
<feGaussianBlur stdDeviation="3" result="effect1_foregroundBlur_335_53251"/>
</filter>
<linearGradient id="paint0_linear_335_53251" x1="692" y1="-100.5" x2="803.5" y2="1119.5" gradientUnits="userSpaceOnUse">
<stop stop-color="#2FB3E3"/>
<stop offset="0.436551" stop-color="#1A637D" stop-opacity="0.57"/>
<stop offset="0.982811" stop-color="#1A637D"/>
</linearGradient>
<linearGradient id="paint1_linear_335_53251" x1="567" y1="313" x2="575.5" y2="344.5" gradientUnits="userSpaceOnUse">
<stop stop-color="#2FB3E3"/>
<stop offset="1" stop-color="#13485B"/>
</linearGradient>
<linearGradient id="paint2_linear_335_53251" x1="570.5" y1="315" x2="570.5" y2="348" gradientUnits="userSpaceOnUse">
<stop stop-color="#9CC5D3"/>
<stop offset="1" stop-color="#2E5A6A"/>
</linearGradient>
<linearGradient id="paint3_linear_335_53251" x1="582.366" y1="330.896" x2="574.466" y2="342.941" gradientUnits="userSpaceOnUse">
<stop stop-color="#C0E8F6"/>
<stop offset="1" stop-color="#89B3C1"/>
</linearGradient>
<linearGradient id="paint4_linear_335_53251" x1="556.8" y1="331.286" x2="567.397" y2="321.529" gradientUnits="userSpaceOnUse">
<stop stop-color="#C0E8F6"/>
<stop offset="1" stop-color="#89B3C1"/>
</linearGradient>
<linearGradient id="paint5_linear_335_53251" x1="881" y1="151" x2="889.5" y2="182.5" gradientUnits="userSpaceOnUse">
<stop stop-color="#2FB3E3"/>
<stop offset="1" stop-color="#13485B"/>
</linearGradient>
<linearGradient id="paint6_linear_335_53251" x1="884.5" y1="153" x2="884.5" y2="186" gradientUnits="userSpaceOnUse">
<stop stop-color="#9CC5D3"/>
<stop offset="1" stop-color="#2E5A6A"/>
</linearGradient>
<linearGradient id="paint7_linear_335_53251" x1="896.366" y1="168.896" x2="888.466" y2="180.941" gradientUnits="userSpaceOnUse">
<stop stop-color="#C0E8F6"/>
<stop offset="1" stop-color="#89B3C1"/>
</linearGradient>
<linearGradient id="paint8_linear_335_53251" x1="870.8" y1="169.286" x2="881.397" y2="159.529" gradientUnits="userSpaceOnUse">
<stop stop-color="#C0E8F6"/>
<stop offset="1" stop-color="#89B3C1"/>
</linearGradient>
<linearGradient id="paint9_linear_335_53251" x1="215.5" y1="146" x2="229.437" y2="203.711" gradientUnits="userSpaceOnUse">
<stop stop-color="#101828"/>
<stop offset="1" stop-color="#2FB3E3"/>
</linearGradient>
<linearGradient id="paint10_linear_335_53251" x1="234.557" y1="171.53" x2="221.869" y2="190.875" gradientUnits="userSpaceOnUse">
<stop stop-color="#C0E8F6"/>
<stop offset="1" stop-color="#89B3C1"/>
</linearGradient>
<linearGradient id="paint11_linear_335_53251" x1="193.497" y1="172.156" x2="210.516" y2="156.485" gradientUnits="userSpaceOnUse">
<stop stop-color="#C0E8F6"/>
<stop offset="1" stop-color="#89B3C1"/>
</linearGradient>
<clipPath id="clip0_335_53251">
<rect width="1440" height="900" fill="white" transform="translate(3)"/>
</clipPath>
</defs>
</svg>
