<svg width="32" height="32" viewBox="0 0 32 32" fill="none" xmlns="http://www.w3.org/2000/svg">
<path d="M17.3334 24H4.00002C3.6464 24 3.30726 23.8595 3.05721 23.6095C2.80716 23.3594 2.66669 23.0203 2.66669 22.6667V5.33333C2.66669 4.97971 2.80716 4.64057 3.05721 4.39052C3.30726 4.14048 3.6464 4 4.00002 4H28C28.3536 4 28.6928 4.14048 28.9428 4.39052C29.1929 4.64057 29.3334 4.97971 29.3334 5.33333V22.6667C29.3334 23.0203 29.1929 23.3594 28.9428 23.6095C28.6928 23.8595 28.3536 24 28 24H22.6667M8.00002 9.33333H24M8.00002 14H12M8.00002 18.6667H10.6667" stroke="#EAF7FC" stroke-width="2" stroke-linecap="round" stroke-linejoin="round"/>
<path d="M20 22C21.0609 22 22.0783 21.5786 22.8284 20.8284C23.5786 20.0783 24 19.0609 24 18C24 16.9391 23.5786 15.9217 22.8284 15.1716C22.0783 14.4214 21.0609 14 20 14C18.9391 14 17.9217 14.4214 17.1716 15.1716C16.4214 15.9217 16 16.9391 16 18C16 19.0609 16.4214 20.0783 17.1716 20.8284C17.9217 21.5786 18.9391 22 20 22Z" stroke="#EAF7FC" stroke-width="2"/>
<path d="M20 26.6658L22.6667 27.9991V20.9805C22.6667 20.9805 21.9067 21.9991 20 21.9991C18.0934 21.9991 17.3334 20.9991 17.3334 20.9991V27.9991L20 26.6658Z" stroke="#EAF7FC" stroke-width="2" stroke-linecap="round" stroke-linejoin="round"/>
</svg>
