<svg width="24" height="24" viewBox="0 0 24 24" fill="none" xmlns="http://www.w3.org/2000/svg">
<rect x="0.5" y="0.5" width="23" height="23" rx="7.5" stroke="#EAF7FC"/>
<path d="M12.0125 10.9017L10.9991 11.9995L12.0125 13.0973C12.053 13.138 12.0826 13.1898 12.0982 13.2473C12.1138 13.3047 12.1148 13.3657 12.1011 13.4237C12.0874 13.4817 12.0595 13.5346 12.0204 13.5769C11.9812 13.6192 11.9323 13.6492 11.8787 13.6639C11.8252 13.6788 11.769 13.6777 11.716 13.6609C11.6631 13.6441 11.6152 13.6121 11.5776 13.5684L10.3468 12.235C10.2892 12.1725 10.2568 12.0878 10.2568 11.9995C10.2568 11.9111 10.2892 11.8264 10.3468 11.7639L11.5776 10.4306C11.6152 10.3867 11.663 10.3546 11.7161 10.3377C11.7691 10.3209 11.8253 10.3198 11.8789 10.3346C11.9324 10.3494 11.9813 10.3796 12.0203 10.422C12.0594 10.4644 12.0871 10.5174 12.1007 10.5755C12.1144 10.6334 12.1134 10.6943 12.0979 10.7517C12.0824 10.8091 12.0529 10.8609 12.0125 10.9017Z" fill="#EAF7FC"/>
<path d="M8.92303 7.55469H15.6923C16.0886 7.55469 16.4102 7.90313 16.4102 8.33247V15.6658C16.4102 15.8721 16.3346 16.0699 16.1999 16.2158C16.0653 16.3616 15.8827 16.4436 15.6923 16.4436H8.92303C8.73262 16.4436 8.55 16.3616 8.41536 16.2158C8.28072 16.0699 8.20508 15.8721 8.20508 15.6658V8.33247C8.20508 7.90313 8.52672 7.55469 8.92303 7.55469ZM8.82046 8.33247V15.6658C8.82046 15.7271 8.86641 15.7769 8.92303 15.7769H13.5384V8.22135H8.92303C8.89583 8.22135 8.86974 8.23306 8.8505 8.2539C8.83127 8.27474 8.82046 8.303 8.82046 8.33247ZM14.1538 15.7769H15.6923C15.7195 15.7769 15.7455 15.7652 15.7648 15.7444C15.784 15.7235 15.7948 15.6953 15.7948 15.6658V8.33247C15.7948 8.303 15.784 8.27474 15.7648 8.2539C15.7455 8.23306 15.7195 8.22135 15.6923 8.22135H14.1538V15.7769Z" fill="#EAF7FC"/>
</svg>
