<svg width="20" height="20" viewBox="0 0 20 20" fill="none" xmlns="http://www.w3.org/2000/svg">
<path d="M15.0002 2.50065H12.3502C12.0002 1.53398 11.0835 0.833984 10.0002 0.833984C8.91683 0.833984 8.00016 1.53398 7.65016 2.50065H5.00016C4.0835 2.50065 3.3335 3.25065 3.3335 4.16732V16.6673C3.3335 17.584 4.0835 18.334 5.00016 18.334H10.0918C9.59881 17.8554 9.19773 17.2905 8.9085 16.6673H5.00016V4.16732H6.66683V5.00065C6.66683 5.91732 7.41683 6.66732 8.3335 6.66732H11.6668C12.5835 6.66732 13.3335 5.91732 13.3335 5.00065V4.16732H15.0002V8.40065C15.5918 8.48398 16.1502 8.65898 16.6668 8.90065V4.16732C16.6668 3.25065 15.9168 2.50065 15.0002 2.50065ZM10.0002 4.16732C9.54183 4.16732 9.16683 3.79232 9.16683 3.33398C9.16683 2.87565 9.54183 2.50065 10.0002 2.50065C10.4585 2.50065 10.8335 2.87565 10.8335 3.33398C10.8335 3.79232 10.4585 4.16732 10.0002 4.16732ZM14.1668 10.0007C11.8668 10.0007 10.0002 11.8673 10.0002 14.1673C10.0002 16.4673 11.8668 18.334 14.1668 18.334C16.4668 18.334 18.3335 16.4673 18.3335 14.1673C18.3335 11.8673 16.4668 10.0007 14.1668 10.0007ZM15.2418 15.834L13.8668 14.459C13.7891 14.3815 13.7443 14.277 13.7418 14.1673V12.0923C13.7418 11.859 13.9252 11.6757 14.1585 11.6757C14.3918 11.6757 14.5752 11.859 14.5752 12.0923V14.0007L15.8252 15.2507C15.8641 15.2888 15.8951 15.3343 15.9163 15.3845C15.9376 15.4347 15.9487 15.4887 15.9489 15.5432C15.9492 15.5977 15.9387 15.6517 15.9179 15.7022C15.8972 15.7526 15.8667 15.7984 15.8281 15.8369C15.7896 15.8755 15.7438 15.906 15.6933 15.9268C15.6429 15.9475 15.5889 15.958 15.5344 15.9578C15.4798 15.9575 15.4259 15.9464 15.3757 15.9252C15.3255 15.9039 15.28 15.8729 15.2418 15.834Z" fill="#EAF7FC"/>
</svg>
