<svg width="20" height="20" viewBox="0 0 20 20" fill="none" xmlns="http://www.w3.org/2000/svg">
<path d="M14.1667 16.016H4.16667V5.83268H10V4.16602H4.16667C3.25 4.16602 2.5 4.91602 2.5 5.83268V15.8327C2.5 16.7494 3.25 17.4994 4.16667 17.4994H14.1667C15.0833 17.4994 15.8333 16.7494 15.8333 15.8327V9.99935H14.1667V16.016Z" fill="#13485B"/>
<path d="M15.8335 1.66602H14.1668V4.16602H11.6668C11.6752 4.17435 11.6668 5.83268 11.6668 5.83268H14.1668V8.32435C14.1752 8.33268 15.8335 8.32435 15.8335 8.32435V5.83268H18.3335V4.16602H15.8335V1.66602ZM5.8335 7.49935H12.5002V9.16602H5.8335V7.49935ZM5.8335 9.99935V11.666H12.5002V9.99935H10.0002H5.8335ZM5.8335 12.4993H12.5002V14.166H5.8335V12.4993Z" fill="#13485B"/>
</svg>
