<svg width="21" height="20" viewBox="0 0 21 20" fill="none" xmlns="http://www.w3.org/2000/svg">
<g clip-path="url(#clip0_1783_1847)">
<path d="M10.5001 19.044C10.8501 19.036 11.1859 18.9044 11.4482 18.6726C11.7105 18.4408 11.8824 18.1237 11.9335 17.7773H9.01123C9.06372 18.1331 9.24363 18.4576 9.51751 18.6906C9.79139 18.9236 10.1406 19.0492 10.5001 19.044V19.044Z" fill="#EAF7FC"/>
<path d="M18.7499 15.628L18.561 15.4613C18.0251 14.9839 17.5561 14.4364 17.1666 13.8336C16.7411 13.0016 16.4861 12.0931 16.4166 11.1613V8.41688C16.4143 8.08352 16.3846 7.75092 16.3277 7.42244C15.3866 7.22902 14.5413 6.71634 13.9349 5.97121C13.3285 5.22607 12.9982 4.29427 12.9999 3.33355V2.98355C12.4198 2.6981 11.7967 2.51039 11.1554 2.42799V1.72799C11.1554 1.53129 11.0773 1.34265 10.9382 1.20356C10.7991 1.06447 10.6105 0.986328 10.4138 0.986328C10.2171 0.986328 10.0284 1.06447 9.88934 1.20356C9.75025 1.34265 9.67211 1.53129 9.67211 1.72799V2.45577C8.2364 2.6583 6.92243 3.37341 5.97279 4.46907C5.02315 5.56473 4.50196 6.96696 4.50545 8.41688V11.1613C4.43587 12.0931 4.18088 13.0016 3.75545 13.8336C3.3726 14.4349 2.91111 14.9823 2.38322 15.4613L2.19434 15.628V17.1947H18.7499V15.628Z" fill="#EAF7FC"/>
<path d="M17.1664 6.11024C18.7006 6.11024 19.9442 4.86659 19.9442 3.33246C19.9442 1.79834 18.7006 0.554688 17.1664 0.554688C15.6323 0.554688 14.3887 1.79834 14.3887 3.33246C14.3887 4.86659 15.6323 6.11024 17.1664 6.11024Z" fill="#EAF7FC"/>
</g>
<defs>
<clipPath id="clip0_1783_1847">
<rect width="20" height="20" fill="white" transform="translate(0.5)"/>
</clipPath>
</defs>
</svg>
